<?xml version="1.0" encoding="utf-8"?>
<!-- Generator: Adobe Illustrator 16.0.2, SVG Export Plug-In . SVG Version: 6.00 Build 0)  -->
<!DOCTYPE svg PUBLIC "-//W3C//DTD SVG 1.1//EN" "http://www.w3.org/Graphics/SVG/1.1/DTD/svg11.dtd">
<svg version="1.1" id="Слой_1" xmlns="http://www.w3.org/2000/svg" xmlns:xlink="http://www.w3.org/1999/xlink" x="0px" y="0px"
	 width="582px" height="576px" viewBox="0 0 582 576" enable-background="new 0 0 582 576" xml:space="preserve">
<g>
	<g>
		<path fill-rule="evenodd" clip-rule="evenodd" fill="#374B06" d="M280.008,7.991c145.181,0.093,260.903,96.118,285.051,227.248
			c27.168,147.534-64.491,288.923-210.368,323.238c-67.964,15.987-133.27,7.081-195.134-25.524c-3.65-1.924-6.104-1.823-9.32,0.597
			c-23.775,17.884-51.165,25.022-80.362,26.198c-10.469,0.422-20.979-0.128-31.469-0.301c-4.494-0.074-8.15-1.609-9.777-6.255
			c-1.649-4.711,0.655-7.914,3.923-10.925c15.486-14.27,29.599-29.775,41.437-47.226c3.347-4.934,5.964-10.363,8.888-15.581
			c1.78-3.176,1.052-5.652-1.407-8.445c-34.252-38.91-55.817-83.998-65.214-134.937C-5.484,218.229,52.972,97.696,159.368,40.926
			C200.567,18.943,244.554,8.15,280.008,7.991z M59.388,541.684c1.225,0.151,1.818,0.293,2.41,0.287
			c15.727-0.142,31.18-2.043,46.282-6.679c12.931-3.969,24.185-10.97,35.134-18.61c6.853-4.783,13.644-5.672,21.427-1.427
			c57.248,31.23,117.901,40.017,181.706,26.712c144.104-30.046,235.365-179.092,196.963-321.56
			C506.723,84.671,373.643,3.162,235.579,31.928C103.876,59.368,13.472,188.165,32.228,321.671
			c7.457,53.075,28.87,99.73,64.682,139.654c4.565,5.089,6.159,10.655,4.512,17.012c-1.243,4.798-2.452,9.905-5.058,13.993
			c-7.406,11.616-15.313,22.932-23.445,34.057C69.046,531.688,64.215,536.286,59.388,541.684z"/>
		<path fill-rule="evenodd" clip-rule="evenodd" fill="#374B06" d="M194.515,414.861c0.835-3.088,1.344-5.18,1.966-7.238
			c9.139-30.241,18.219-60.501,27.538-90.688c1.142-3.698,0.325-5.573-2.649-7.805c-25.172-18.891-50.216-37.953-75.298-56.964
			c-0.796-0.604-1.58-1.225-2.384-1.817c-3.623-2.667-5.06-6.188-3.667-10.505c1.415-4.386,4.77-6.026,9.242-6.115
			c27.646-0.546,55.291-1.169,82.936-1.754c4.664-0.1,9.341-0.384,13.987-0.129c3.929,0.216,5.743-1.07,7.076-4.99
			c10.016-29.434,20.337-58.765,30.563-88.127c0.273-0.785,0.601-1.556,0.817-2.355c1.286-4.747,3.804-8.275,9.181-8.333
			c5.36-0.059,7.836,3.381,9.382,8.092c2.801,8.529,5.869,16.971,8.821,25.45c7.599,21.826,15.306,43.617,22.685,65.517
			c1.258,3.73,3.061,4.685,6.745,4.745c32.312,0.524,64.619,1.265,96.929,1.872c3.99,0.075,7.723,1.084,8.872,5.017
			c0.797,2.726,0.334,6.151-0.584,8.929c-0.585,1.771-2.942,3.043-4.654,4.344c-24.795,18.837-49.558,37.72-74.493,56.371
			c-3.71,2.775-4.835,5.047-3.354,9.775c9.389,29.987,18.411,60.093,27.441,90.192c0.74,2.464,1.276,5.299,0.812,7.754
			c-0.979,5.175-7.937,9.233-15.245,4.048c-25.8-18.3-51.942-36.116-77.768-54.382c-4.007-2.833-6.563-3.11-10.735-0.151
			c-25.801,18.299-51.869,36.221-77.799,54.339c-3.874,2.708-7.85,4.243-11.867,1.027
			C196.978,419.351,195.795,416.666,194.515,414.861z M174.798,251.282c2.609,2.022,4.242,3.313,5.901,4.571
			c19.377,14.692,38.759,29.379,58.137,44.07c6.296,4.774,6.954,6.851,4.633,14.534c-7.262,24.041-14.528,48.08-21.773,72.125
			c-0.344,1.143-0.5,2.342-0.914,4.336c2.303-1.533,3.83-2.511,5.316-3.544c20.101-13.972,40.192-27.957,60.296-41.923
			c6.54-4.544,8.583-4.526,15.235,0.096c18.463,12.826,36.915,25.668,55.373,38.503c3.123,2.172,6.252,4.335,10.533,7.304
			c-0.918-3.288-1.441-5.306-2.045-7.3c-7.089-23.398-14.198-46.79-21.281-70.189c-2.092-6.912-1.281-9.317,4.534-13.725
			c19.512-14.791,39.031-29.57,58.544-44.36c1.643-1.244,3.252-2.53,4.877-3.796c-2.196-0.991-3.969-0.962-5.739-0.996
			c-24.654-0.476-49.31-0.923-73.963-1.466c-7.694-0.17-9.434-1.547-11.967-8.824c-7.547-21.675-15.066-43.358-22.608-65.036
			c-1.113-3.203-2.291-6.383-3.855-10.727c-1.053,2.708-1.674,4.17-2.195,5.666c-7.988,22.93-15.966,45.864-23.94,68.798
			c-3.13,9.003-4.338,9.971-14.077,10.18c-24.153,0.517-48.309,0.945-72.464,1.419C179.604,251.031,177.854,251.147,174.798,251.282
			z"/>
	</g>
</g>
</svg>
