<?xml version="1.0" encoding="utf-8"?>
<!-- Generator: Adobe Illustrator 16.0.2, SVG Export Plug-In . SVG Version: 6.00 Build 0)  -->
<!DOCTYPE svg PUBLIC "-//W3C//DTD SVG 1.1//EN" "http://www.w3.org/Graphics/SVG/1.1/DTD/svg11.dtd">
<svg version="1.1" id="Слой_1" xmlns="http://www.w3.org/2000/svg" xmlns:xlink="http://www.w3.org/1999/xlink" x="0px" y="0px"
	 width="77px" height="81px" viewBox="0 0 584 621" enable-background="new 0 0 584 621" xml:space="preserve">
<g>
	<g>
		<path fill-rule="evenodd" clip-rule="evenodd" fill="#374B06" d="M308.954,9c9.542,1.27,19.176,2.064,28.612,3.883
			c110.089,21.221,186.199,84.138,223.567,189.61c53.074,149.802-30.236,314.705-181.52,364.05
			c-11.822,3.857-24.017,6.569-37.038,10.084c0-6.551-0.239-12.15,0.204-17.694c0.087-1.096,2.68-2.522,4.317-2.881
			c21.066-4.604,41.442-11.266,60.668-21.033c78.117-39.684,127.389-102.284,144.958-188.079
			c28.981-141.515-61.549-280.506-202.195-312.508C212.715,3.074,74.312,84.232,34.58,219.699
			c-42.188,143.841,42.495,294.47,187.334,333.18c4.497,1.202,9.044,2.236,13.604,3.181c2.606,0.538,4.074,1.476,3.904,4.566
			c-0.271,4.938-0.073,9.903-0.073,16.384c-15.737-4.57-30.935-7.782-45.228-13.325C92.387,524.229,29.101,450.903,9.599,343.687
			C-17.939,192.288,80.041,48.581,230.582,15.398c12.311-2.713,25.001-3.704,37.512-5.514c1.63-0.235,3.244-0.587,4.864-0.885
			C284.957,9,296.955,9,308.954,9z"/>
		<path fill-rule="evenodd" clip-rule="evenodd" fill="#374B06" d="M282.881,95.703c0.531-2.694,0.931-5.472,1.635-8.171
			c5.076-19.457,25.291-34.458,45.604-33.908c4.933,0.133,8.616,3.456,9.104,8.211c0.517,5.05-2.44,8.973-7.487,10.22
			c-5.148,1.271-10.492,2.156-15.323,4.212c-7.936,3.378-12.969,9.479-14.235,18.739c6.718-0.865,13.096-2.329,19.479-2.348
			c8.256-0.023,16.776,0.028,24.722,1.95c21.496,5.2,35.256,23.035,37.655,46.412c2.348,22.859-2.257,44.826-8.658,66.415
			c-3.569,12.035-7.797,24.196-13.893,35.089c-10.644,19.02-27.265,29.418-49.872,27.321c-5.879-0.546-11.583-2.823-17.422-4.043
			c-2.097-0.438-4.6-0.751-6.501-0.027c-27.567,10.495-52.259,2.219-67.619-22.988c-9.777-16.045-13.894-34.123-18.026-52.114
			c-3.585-15.609-5.995-31.396-4.336-47.537c3.582-34.871,27.4-54.315,62.297-50.622C267.561,93.313,275.067,94.601,282.881,95.703z
			 M215.467,154.656c1.043,7.65,1.795,16.801,3.614,25.733c3.515,17.267,7.131,34.622,15.646,50.299
			c11.611,21.377,30.739,26.689,51.818,14.56c3.099-1.782,5.191-2.008,8.411-0.133c21.202,12.353,40.345,6.913,52.16-14.644
			c1.91-3.485,3.655-7.132,4.898-10.896c2.71-8.203,5.389-16.444,7.465-24.822c4.373-17.638,8.137-35.377,5.497-53.774
			c-2.636-18.363-14.413-29.534-32.928-29.782c-8.401-0.113-16.986,0.866-25.205,2.651c-10.831,2.353-21.255,2.259-32.092-0.01
			c-8.545-1.789-17.49-2.782-26.195-2.458c-17.655,0.658-28.516,10.912-31.493,28.366
			C216.312,144.159,216.092,148.663,215.467,154.656z"/>
		<path fill-rule="evenodd" clip-rule="evenodd" fill="#374B06" d="M402.195,133.27c54.695,34.806,98.067,111.513,82.443,196.646
			c-17.037,92.828-89.8,142.396-142.036,154.25c0-5.73-0.208-11.366,0.175-16.96c0.077-1.13,2.232-2.593,3.702-3.08
			c29.384-9.742,54.483-26.057,75.571-48.686c68.02-72.989,61.125-190.953-15.047-255.402c-2.646-2.238-3.863-4.397-3.838-7.945
			C403.212,145.855,402.561,139.609,402.195,133.27z"/>
		<path fill-rule="evenodd" clip-rule="evenodd" fill="#374B06" d="M239.353,484.194c-55.954-12.981-126.332-65.348-142.251-155.356
			c-15.556-87.948,31.218-163.3,81.562-194.867c0,6.668,0.166,13.932-0.14,21.176c-0.061,1.444-1.709,3.054-2.985,4.181
			c-44.126,38.998-65.298,87.998-62.28,146.714c3.698,71.949,52.582,134.953,121.283,157.651c4.023,1.33,5.152,3.131,4.883,7.02
			C239.117,475.148,239.353,479.62,239.353,484.194z"/>
		<path fill-rule="evenodd" clip-rule="evenodd" fill="#374B06" d="M276.927,515.438c0,26.824,0.002,53.648-0.006,80.473
			c0,1.665,0.105,3.358-0.152,4.988c-0.719,4.556-4.468,12.833-8.923,12.998c-4.449,0.166-8.454-7.825-9.428-12.354
			c-0.414-1.923-0.332-3.972-0.333-5.963c-0.016-50.316-0.06-100.635,0.082-150.95c0.011-3.87-1.025-5.269-4.867-6.253
			c-23.624-6.051-39.867-26.678-40.104-51.111c-0.255-26.321-0.089-52.648-0.045-78.974c0.011-6.734,3.949-11.171,9.555-11.089
			c5.648,0.082,9.243,4.421,9.249,11.325c0.021,25.491-0.007,50.983,0.014,76.476c0.017,20.765,13.17,34.876,33.871,36.395
			c8.306,0.609,11.078,3.595,11.082,12.064C276.935,460.789,276.926,488.113,276.927,515.438z"/>
		<path fill-rule="evenodd" clip-rule="evenodd" fill="#374B06" d="M304.981,514.932c-0.004-27.157-0.012-54.313,0-81.47
			c0.004-8.483,2.748-11.453,11.064-12.086c20.747-1.578,33.864-15.619,33.891-36.374c0.034-25.657-0.019-51.314,0.026-76.972
			c0.015-7.991,5.95-12.682,12.621-10.118c3.831,1.473,6.074,4.458,6.067,8.385c-0.046,28.978,0.738,58.009-0.785,86.915
			c-1.169,22.201-17.666,39.664-39.275,45.163c-3.879,0.987-4.853,2.438-4.842,6.274c0.136,49.98,0.09,99.962,0.09,149.943
			c0,1.332,0.038,2.667-0.013,3.998c-0.231,6.16-3.9,15.221-9.291,15.313c-5.572,0.097-9.515-9.101-9.526-15.505
			C304.957,570.577,304.986,542.754,304.981,514.932z"/>
		<path fill-rule="evenodd" clip-rule="evenodd" fill="#374B06" d="M276.926,345.465c0,12.16,0.024,24.32-0.009,36.482
			c-0.02,7.056-3.429,11.156-9.228,11.248c-6.009,0.096-9.597-4.09-9.605-11.395c-0.027-24.322-0.025-48.645,0-72.966
			c0.007-7.185,3.74-11.686,9.505-11.634c5.769,0.052,9.318,4.496,9.331,11.78C276.941,321.143,276.926,333.303,276.926,345.465z"/>
		<path fill-rule="evenodd" clip-rule="evenodd" fill="#374B06" d="M304.986,344.954c0-12.162-0.025-24.322,0.011-36.484
			c0.02-6.853,3.687-11.226,9.322-11.27c5.609-0.043,9.489,4.393,9.501,11.146c0.042,24.655,0.046,49.311-0.002,73.966
			c-0.014,6.861-3.769,10.982-9.621,10.884c-5.661-0.096-9.169-4.113-9.195-10.76C304.951,369.941,304.987,357.447,304.986,344.954z
			"/>
	</g>
</g>
</svg>
