<?xml version="1.0" encoding="utf-8"?>
<!-- Generator: Adobe Illustrator 16.0.2, SVG Export Plug-In . SVG Version: 6.00 Build 0)  -->
<!DOCTYPE svg PUBLIC "-//W3C//DTD SVG 1.1//EN" "http://www.w3.org/Graphics/SVG/1.1/DTD/svg11.dtd">
<svg version="1.1" id="Слой_1" xmlns="http://www.w3.org/2000/svg" xmlns:xlink="http://www.w3.org/1999/xlink" x="0px" y="0px"
	 width="583px" height="614px" viewBox="0 0 583 614" enable-background="new 0 0 583 614" xml:space="preserve">
<g>
	<g>
		<path fill-rule="evenodd" clip-rule="evenodd" fill="#FBDE3E" d="M290.13,173.871c1.239-11.134,1.665-21.993,3.762-32.518
			c6.608-33.169,24.335-57.225,57.863-67.442c7.379-2.249,14.877-3.621,22.574-1.029c11.167,3.76,13.953,14.678,5.11,22.454
			c-3.995,3.512-9.097,6.651-14.196,7.866c-21.096,5.026-31.731,19.483-36.987,39.118c-1.572,5.872-2.421,11.937-3.807,18.957
			c3.152-0.614,5.169-0.95,7.158-1.404c73.161-16.702,138.71-3.727,192.835,50.863c23.39,23.591,36.148,53.081,42.845,85.439
			c4.301,20.783,4.982,41.828,3.18,62.679c-6.036,69.841-28.684,133.203-76.585,185.86c-19.088,20.984-41.612,37.251-68.732,46.623
			c-21.27,7.35-43.003,8.091-65.069,5.17c-23.646-3.133-45.551-10.873-65.477-24.15c-1.322-0.882-4.333-0.716-5.725,0.213
			c-31.278,20.869-66.091,27.886-102.88,24.897c-22.395-1.819-42.838-10.596-61.513-23.183
			c-34.369-23.163-58.561-54.958-77.021-91.465c-17.918-35.431-29.152-72.961-32.653-112.524
			c-1.507-17.033-2.738-34.376-1.281-51.335c5.74-66.787,40.779-125.252,112.583-152.627c46.959-17.903,94.414-17.812,141.855-1.522
			c6.433,2.208,12.591,5.217,18.884,7.838C288.005,173.127,289.192,173.524,290.13,173.871z"/>
		<path fill-rule="evenodd" clip-rule="evenodd" fill="#FBDE3E" d="M239.334,144.467c-23.635-0.625-44.705-8.413-62.814-23.491
			c-28.093-23.391-36.481-57.812-23.2-93.1c5.276-14.016,5.29-14.128,20.013-12.301c26.431,3.28,52.815,6.976,78.191,15.465
			c7.682,2.569,15.279,5.784,22.349,9.72c22.368,12.455,30.732,31.758,25.302,56.808c-3.665,16.904-10.705,31.488-27,39.847
			C261.846,142.711,250.822,144.624,239.334,144.467z"/>
	</g>
</g>
</svg>
