<?xml version="1.0" encoding="utf-8"?>
<!-- Generator: Adobe Illustrator 16.0.2, SVG Export Plug-In . SVG Version: 6.00 Build 0)  -->
<!DOCTYPE svg PUBLIC "-//W3C//DTD SVG 1.1//EN" "http://www.w3.org/Graphics/SVG/1.1/DTD/svg11.dtd">
<svg version="1.1" id="Слой_1" xmlns="http://www.w3.org/2000/svg" xmlns:xlink="http://www.w3.org/1999/xlink" x="0px" y="0px"
	 width="30px" height="46px" viewBox="0 0 280 596" enable-background="new 0 0 280 596" xml:space="preserve">
<g>
	<path fill-rule="evenodd" clip-rule="evenodd" fill="#536724" d="M6.402,298.493c-1.031-12.853,2.766-24.458,9.016-35.64
		c42.38-75.823,84.716-151.671,126.834-227.64c9.785-17.649,23.675-28.627,43.937-31.551c29.011-4.185,58.737,19.793,60.677,49.092
		c0.831,12.54-2.001,23.958-8.125,34.907c-38.18,68.258-76.166,136.624-114.382,204.862c-2.387,4.262-2.584,7.322-0.114,11.729
		c38.571,68.801,76.998,137.684,115.292,206.64c17.614,31.717,2.835,69.625-30.978,80.216c-24.819,7.774-50.972-2.544-64.121-25.816
		c-18.828-33.321-37.335-66.822-55.968-100.253c-24.304-43.606-48.516-87.265-72.952-130.796
		C9.247,323.071,5.399,311.487,6.402,298.493z"/>
	<path fill-rule="evenodd" clip-rule="evenodd" fill="#536724" d="M262.515,118.385c3.484,1.911,6.497,3.563,9.815,5.382
		c-0.986,2.011-1.73,3.648-2.574,5.23c-29.179,54.763-58.326,109.542-87.646,164.229c-2.05,3.824-2.059,6.631-0.005,10.464
		c29.389,54.838,58.602,109.77,87.851,164.684c0.765,1.438,1.45,2.918,2.376,4.786c-3.31,1.817-6.319,3.469-9.793,5.376
		c-0.913-1.542-1.776-2.867-2.513-4.258c-30.188-57.05-60.353-114.111-90.577-171.142c-1.414-2.67-1.897-4.83-0.323-7.812
		c30.521-57.813,60.911-115.695,91.337-173.558C260.995,120.754,261.649,119.805,262.515,118.385z"/>
</g>
</svg>