<?xml version="1.0" encoding="utf-8"?>
<!-- Generator: Adobe Illustrator 16.0.2, SVG Export Plug-In . SVG Version: 6.00 Build 0)  -->
<!DOCTYPE svg PUBLIC "-//W3C//DTD SVG 1.1//EN" "http://www.w3.org/Graphics/SVG/1.1/DTD/svg11.dtd">
<svg version="1.1" id="Слой_1" xmlns="http://www.w3.org/2000/svg" xmlns:xlink="http://www.w3.org/1999/xlink" x="0px" y="0px"
	 width="27px" height="27px" viewBox="0 0 313 309" enable-background="new 0 0 313 309" xml:space="preserve">
<g>
	<g>
		<path fill-rule="evenodd" clip-rule="evenodd" fill="#86DE13" d="M156.626,304.63C75.846,304.56,7.507,239.303,6.664,156.095
			C5.812,72.008,74.515,5.204,155.296,4.743c83.532-0.477,151.072,66.461,151.328,149.69
			C306.877,236.88,239.723,304.122,156.626,304.63z M156.69,23.321C84.454,23.218,25.3,82.34,25.318,154.621
			c0.019,72.101,58.772,131,130.926,131.251c72.207,0.251,131.532-58.816,131.628-131.057
			C287.967,82.498,229.033,23.423,156.69,23.321z"/>
		<path fill-rule="evenodd" clip-rule="evenodd" fill="#86DE13" d="M249.775,110.111c-1.41,4.358,1.301,7.484,4.586,10.648
			c19.948,19.209,19.637,49.741-0.79,68.316c-2.909,2.646-3.93,5.414-3.872,9.129c0.469,30.028-20.607,50.389-50.817,49.546
			c-2.387-0.067-5.377,1.654-7.178,3.454c-21.44,21.428-49.938,21.23-70.658-0.409c-1.771-1.851-5.208-2.973-7.87-2.97
			c-30.414,0.036-50.6-20.622-49.65-50.762c0.075-2.394-1.546-5.536-3.399-7.188c-21.779-19.426-21.135-52.617,0.812-71.357
			c1.75-1.495,2.563-4.994,2.523-7.541C63,81.242,84.401,60.258,113.819,61.478c2.518,0.104,5.731-1.647,7.617-3.539
			c21.483-21.545,49.576-21.184,71.036,0.771c1.918,1.961,5.938,2.718,8.942,2.635C228.422,60.604,250.617,82.557,249.775,110.111z
			 M181.262,155.286c18.037,8.021,35.135,15.68,52.319,23.14c1.174,0.51,3.261-0.064,4.48-0.836
			c14.31-9.054,16.46-30.924,4.092-42.534c-1.18-1.106-3.886-1.518-5.522-1.032c-4.929,1.462-14.51,5.318-14.51,5.318l-6.727-17.33
			c0,0,7.056-3.005,10.71-4.092c3.243-0.964,4.347-3.086,4.753-6.13c2.16-16.165-10.332-31.059-26.546-31.751
			c-3.071-0.131-4.821,0.727-6.085,3.708c-4.672,11.023-9.615,21.931-14.463,32.88c-2.93,6.614-5.87,13.224-9.289,20.927
			c4.453-1.665,37.531-14.378,40.92-15.542l6.727,17.33C218.782,140.731,185.531,153.6,181.262,155.286z M138.819,171.48
			c-18.689,7.184-36.027,13.808-53.305,20.585c-1.125,0.44-2.245,1.922-2.602,3.144c-4.792,16.427,10.506,35.088,27.658,33.698
			c1.309-0.105,3.146-1.25,3.667-2.398C122.335,208.664,130.256,190.739,138.819,171.48z M139.45,136.623
			c-0.697-2.042-0.933-2.818-1.224-3.574c-6.315-16.431-12.58-32.882-19.062-49.248c-0.527-1.331-2.408-2.641-3.892-3
			c-16.339-3.952-33.325,9.992-33.274,26.952c0.01,3.212,1.66,4.222,4.108,5.297c14.902,6.547,29.756,13.204,44.631,19.813
			C133.268,133.987,135.822,135.06,139.45,136.623z M155.945,179.106c-8.118,18.301-15.691,35.255-23.083,52.288
			c-0.52,1.198-0.153,3.264,0.575,4.45c8.929,14.536,31.376,16.751,42.82,4.198c0.989-1.085,1.7-3.427,1.227-4.692
			C170.621,217.031,163.532,198.797,155.945,179.106z M157.232,130.083c8.059-18.158,15.661-35.105,23.003-52.163
			c0.595-1.385-0.082-3.884-1.032-5.277c-9.354-13.712-29.302-15.728-41.548-4.443c-2.218,2.045-3.083,3.862-1.699,6.882
			c2.139,4.667,3.788,9.557,5.636,14.356C146.647,102.567,151.697,115.698,157.232,130.083z M131.21,154.247
			c-0.902-0.759-1.196-1.14-1.583-1.313c-16.534-7.376-33.047-14.801-49.67-21.971c-1.387-0.598-3.881,0.019-5.256,0.957
			c-13.747,9.393-15.804,29.326-4.534,41.598c2.053,2.236,3.865,2.898,6.918,1.671c12.786-5.146,25.696-9.984,38.559-14.937
			C120.685,158.312,125.724,156.364,131.21,154.247z M173.864,172.567c0.406,1.494,0.516,2.099,0.732,2.663
			c6.319,16.457,12.562,32.945,19.104,49.313c0.695,1.74,2.969,3.626,4.811,4.011c16.062,3.357,32.136-9.885,32.544-26.359
			c0.077-3.096-0.805-4.763-3.75-6.028c-13.906-5.974-27.711-12.185-41.551-18.314C182.031,176.204,178.314,174.546,173.864,172.567
			z"/>
	</g>
</g>
</svg>
