<?xml version="1.0" encoding="utf-8"?>
<!-- Generator: Adobe Illustrator 16.0.2, SVG Export Plug-In . SVG Version: 6.00 Build 0)  -->
<!DOCTYPE svg PUBLIC "-//W3C//DTD SVG 1.1//EN" "http://www.w3.org/Graphics/SVG/1.1/DTD/svg11.dtd">
<svg version="1.1" id="Слой_1" xmlns="http://www.w3.org/2000/svg" xmlns:xlink="http://www.w3.org/1999/xlink" x="0px" y="0px"
	 width="676px" height="555px" viewBox="0 0 676 555" enable-background="new 0 0 676 555" xml:space="preserve">
<g>
	<path fill-rule="evenodd" clip-rule="evenodd" fill="#FF7200" d="M165.14,515.502c-16.205,0.706-26.311,0.308-37.809-1.835
		c-16.775-3.125-32.7-9.188-47.64-17.606c-15.593-8.783-29.231-19.994-41.199-33.261c-1.773-1.966-3.542-4-4.921-6.243
		c-1.662-2.705-2.021-5.391,1.014-7.799c15.2-12.063,30.326-24.222,45.471-36.356c14.496-11.612,29.013-23.199,43.465-34.865
		c11.74-9.479,23.364-19.102,35.103-28.582c12.396-10.009,24.896-19.89,37.292-29.897c6.97-5.627,13.77-11.463,20.74-17.088
		c10.299-8.31,20.669-16.531,31.034-24.76c8.707-6.91,17.624-13.568,26.092-20.759c3.6-3.054,6.382-2.628,8.855,0.521
		c4.187,5.332,8.715,10.604,11.756,16.584c6.184,12.16,12.521,24.428,16.801,37.313c3.542,10.664,4.722,22.221,6.053,33.488
		c2.434,20.618-0.729,40.842-6.82,60.483c-6.128,19.761-15.859,37.781-29.316,53.629c-19.881,23.413-44.037,40.832-73.541,49.732
		C192.939,512.613,181.345,514.796,165.14,515.502z M63.898,439.105c38.325,44.797,115.723,62.31,174.804,13.316
		c50.579-41.942,58.928-117.429,19.968-170.037c-11.847,9.524-23.675,19.033-35.459,28.508
		c26.369,40.095,13.739,85.188-16.407,108.668c-27.713,21.584-73.066,25.924-107.519-8.805
		C87.583,420.132,75.856,429.525,63.898,439.105z M268.064,275.14c5.385,10.505,10.961,20.599,15.808,31.031
		c6.424,13.825,8.917,28.673,9.652,43.799c0.845,17.357-0.955,34.466-7.51,50.646c-4.384,10.822-8.835,21.894-15.206,31.57
		c-9.689,14.715-22.152,27.091-36.921,37.19c-12.86,8.794-26.793,15.225-41.592,19.055c-15.153,3.924-30.904,5.636-46.655,3.393
		c-9.672-1.377-19.74-2.104-28.75-5.476c-12.236-4.58-23.969-10.833-35.263-17.48c-7.169-4.22-13.77-9.872-19.516-15.933
		c-8.464-8.928-5.86-7.104-14.083-1.188c-0.941,0.677-1.805,1.461-3.252,2.643c40.417,42.766,88.993,60.487,146.032,47.463
		c57.35-13.096,95.084-49.794,111.013-106.318c12.957-45.978,3.64-89.027-24.425-128.387
		C273.709,270.305,270.588,272.978,268.064,275.14z M108.086,403.263c17.957,22.439,63.008,33.033,94.691,5.25
		c27.228-23.878,31.357-63.942,11.344-90.617c-9.583,7.749-19.155,15.49-29.496,23.853c6.93-0.926,12.629-1.47,18.243-2.489
		c7.405-1.348,16.1,5.381,16.667,14.141c0.51,7.875-6.742,17.007-15.055,15.499c-6.044-1.097-12.026-3.18-17.675-5.646
		c-6.198-2.708-11.102-6.912-8.696-16.038c-11.138,8.854-21.279,16.914-31.71,25.206c7.622,1.388,11.185,4.629,13.169,12.037
		c0.974,3.637,1.45,7.405,2.265,11.088c2.61,11.795-7.217,22.284-18.914,19.431c-6.992-1.706-12.738-11.519-10.347-18.364
		c1.992-5.703,3.95-11.417,6.239-18.041C128.093,387.184,118.088,395.225,108.086,403.263z M190.545,351.774
		c-0.038,0.636-0.076,1.271-0.115,1.907c4.201,1.645,8.307,3.65,12.639,4.798c2.663,0.704,5.469-0.626,5.749-3.882
		c0.277-3.213-1.714-4.979-4.953-4.644C199.411,350.416,194.984,351.154,190.545,351.774z M149.298,386.912
		c-0.626-0.112-1.252-0.225-1.879-0.336c-1.43,3.954-3.121,7.84-4.161,11.895c-0.412,1.604,0.082,4.121,1.173,5.215
		c0.897,0.898,3.676,0.944,4.906,0.194c1.217-0.742,2.249-3.017,2.116-4.508C151.079,395.188,150.062,391.062,149.298,386.912z"/>
	<path fill-rule="evenodd" clip-rule="evenodd" fill="#8AE613" d="M606.833,306.75l0.125-21.75c0,0,4.279-7.426,9.374-16.919
		c17.73-33.047,31.628-67.516,37.788-104.733c3.757-22.694,4.428-45.395-1.314-67.911c-10.311-40.434-40.157-66.795-81.557-72.608
		C551.905,20.112,519.029,21.217,500,25c-31.486,6.258-49.458,11.588-79.919,22.132c-4.691,1.624-9.405,3.186-14.546,4.042
		c2.669-1.535,5.274-3.194,8.017-4.583c33.736-17.097,68.68-30.673,106.385-36.039c28.299-4.027,56.396-3.166,82.973,8.05
		c35.1,14.812,55.682,42.036,63.541,79.15c6.039,28.52,2.994,56.711-3.272,84.68C651.833,239,606.833,306.75,606.833,306.75z"/>
	<path fill-rule="evenodd" clip-rule="evenodd" fill="#FFFFFF" d="M267.111,220.954c-7.033,0-12.965,0.209-18.86-0.16
		c-1.339-0.084-2.836-1.982-3.777-3.374c-10.531-15.579-21.204-31.072-31.293-46.936c-3.193-5.02-6.661-7.351-12.461-6.378
		c-1.574,0.264-3.23,0.04-4.692,0.04c0,19.173,0,37.744,0,56.569c-5.713,0-11.299,0-17.233,0c0-40.781,0-81.467,0-122.442
		c5.683,0,11.279,0,17.257,0c0,16.824,0,33.681,0,51.148c3.686,0,7.5,0.309,11.217-0.155c1.437-0.179,2.958-1.892,3.93-3.268
		c10.464-14.816,20.886-29.665,31.159-44.616c1.686-2.454,3.389-3.629,6.445-3.466c4.921,0.263,9.866,0.07,15.871,0.07
		c-14.079,20.303-27.582,39.777-40.697,58.69C237.953,177.502,252.238,198.791,267.111,220.954z"/>
	<path fill-rule="evenodd" clip-rule="evenodd" fill="#FFFFFF" d="M358.926,97.833c-0.373,6.09-0.643,10.487-0.929,15.152
		c-15.555,0-30.53-0.009-45.506,0.003c-10.734,0.008-12.88,2.153-12.888,12.832c-0.006,7.46-0.002,14.92-0.002,22.89
		c17.334,0,34.242,0,51.486,0c0,5.061,0,9.61,0,14.705c-17.09,0-34.004,0-51.266,0c0,12.145-0.291,23.763,0.133,35.354
		c0.187,5.094,3.375,7.16,9.025,7.183c14.322,0.062,28.645,0.021,42.967,0.021c1.82,0,3.641,0,6.031,0
		c0.289,4.659,0.563,9.056,0.88,14.18c-7.362,0.31-14.273,0.764-21.189,0.854c-11.976,0.158-23.985,0.648-35.921-0.033
		c-12.85-0.733-20.25-9.243-20.287-22.017c-0.076-26.313-0.075-52.625,0-78.937c0.036-12.764,7.452-21.537,20.271-22.009
		C320.49,97.32,339.293,97.833,358.926,97.833z"/>
	<path fill-rule="evenodd" clip-rule="evenodd" fill="#FFFFFF" d="M428.768,220.763c-6.511,0-12.122,0-18.169,0
		c0-35.447,0-70.689,0-106.499c-12.977,0-25.537,0-38.467,0c0-5.603,0-10.649,0-15.989c31.667,0,63.214,0,95.022,0
		c0,5.172,0,10.094,0,15.487c-12.693,0-25.271,0-38.387,0C428.768,149.605,428.768,184.984,428.768,220.763z"/>
	<path fill="#FFFFFF" d="M570.151,210.875c-7.3,9.471-20.119,14.208-38.463,14.208c-18.34,0-31.132-4.737-38.372-14.208
		c-7.24-9.475-10.859-26.335-10.859-50.59c0-24.254,3.619-41.118,10.859-50.589c7.24-9.474,20.032-14.208,38.372-14.208
		c18.344,0,31.163,4.734,38.463,14.208c7.302,9.471,10.95,26.335,10.95,50.589C581.102,184.539,577.453,201.4,570.151,210.875z
		 M506.168,199.833c4.706,7.299,13.213,10.95,25.521,10.95s20.815-3.651,25.521-10.95c4.706-7.302,7.059-20.484,7.059-39.549
		c0-19.067-2.353-32.249-7.059-39.548c-4.706-7.302-13.214-10.951-25.521-10.951s-20.814,3.648-25.521,10.951
		c-4.706,7.299-7.06,20.481-7.06,39.548C499.108,179.349,501.462,192.531,506.168,199.833z"/>
	<path fill-rule="evenodd" clip-rule="evenodd" fill="#FF7200" d="M353.778,381.955c0-31.794,0-62.227,0-93.467
		c5.921-0.248,11.82-0.64,17.724-0.709c7.977-0.092,15.993-0.412,23.926,0.217c13.981,1.109,21.883,7.772,25.269,21.503
		c4.083,16.559,4.055,33.358,0.193,49.939c-3.408,14.639-12.074,21.787-27.216,22.406
		C380.568,382.38,367.424,381.955,353.778,381.955z M367.801,300.038c0,23.232,0,46.435,0,70.038c7.989,0,15.628,0.311,23.229-0.085
		c8.011-0.417,13.503-4.851,15.455-12.643c3.783-15.103,3.699-30.332-0.08-45.431c-1.574-6.29-5.802-11.094-12.287-11.685
		C385.444,299.443,376.644,300.038,367.801,300.038z"/>
	<path fill-rule="evenodd" clip-rule="evenodd" fill="#8AE613" d="M510.584,405.708l16.583-0.041c0,0-13.156,14.447-19.686,20.479
		c-30.178,27.874-62.811,52.507-98.375,73.14c-39.312,22.808-80.628,40.33-125.974,47.004c-1.316,0.194-2.635,0.386-3.957,0.519
		c-0.476,0.047-0.969-0.085-1.652-0.156c0.344-0.502,0.517-1.072,0.859-1.207c9.567-3.747,32.7-8.944,96.45-41.444
		c42.352-20.999,83.193-50.568,118.305-82.068C501.308,414.603,510.584,405.708,510.584,405.708z"/>
	<path fill-rule="evenodd" clip-rule="evenodd" fill="#FFFFFF" d="M60.792,182.688c-3.544-10.1-6.712-19.112-9.869-28.127
		c-1.759-5.023-3.627-10.014-5.177-15.101c-0.491-1.611-0.85-4.414-0.005-5.087c4.366-3.485,9.04-6.632,13.878-9.427
		c0.779-0.449,3.429,1.103,4.37,2.361c11.953,15.98,23.75,32.076,35.818,48.455c-3.173,2.182-6.153,4.231-9.556,6.57
		c-11.06-15.095-21.974-29.99-32.888-44.884c-0.431,0.202-0.861,0.404-1.292,0.607c0.324,1.271,0.556,2.575,0.987,3.809
		c4.275,12.247,8.458,24.527,12.948,36.696c1.602,4.343,0.776,7.071-3.172,9.62c-8.93,5.764-8.811,5.898-16.724-1.077
		c-9.58-8.444-19.197-16.846-28.798-25.267c-0.426,0.307-0.852,0.613-1.278,0.92c9.617,15.627,19.235,31.254,29.09,47.268
		c-3.174,2.179-6.111,4.194-9.46,6.492c-4.913-7.982-9.6-15.597-14.285-23.213c-5.58-9.071-11.051-18.211-16.79-27.181
		c-2.373-3.708-2.069-6.323,1.686-8.74c14.112-9.085,10.275-9.635,22.65,1.164c8.403,7.333,16.64,14.856,24.968,22.274
		C58.444,181.312,59.146,181.638,60.792,182.688z"/>
	<path fill-rule="evenodd" clip-rule="evenodd" fill="#FF7200" d="M485.694,354.79c0.201,12.499,6.746,17.674,20.531,16.864
		c3.486-0.204,6.973-0.418,10.455-0.676c3.453-0.254,6.902-0.569,10.23-0.848c0.299,0.5,0.555,0.75,0.604,1.035
		c1.438,8.35,1.497,8.899-7.136,9.878c-8.692,0.985-17.587,1.498-26.285,0.828c-12.473-0.96-19.694-7.609-21.274-19.99
		c-1.144-8.958-1.09-18.273-0.057-27.256c1.379-11.987,7.62-18.308,19.667-19.754c7.757-0.932,16.073-0.746,23.638,1.049
		c13.62,3.231,19.234,22.827,10.424,33.807c-3.205,3.996-7.669,5.041-12.494,5.055C504.693,354.809,495.389,354.79,485.694,354.79z
		 M485.248,344.448c8.045,0,15.635-0.035,23.224,0.015c3.705,0.024,6.998-0.39,8.133-4.78c1.286-4.979-0.036-10.787-3.669-12.496
		c-7.14-3.358-14.737-3.511-21.565,0.34C485.237,330.986,485.524,337.629,485.248,344.448z"/>
	<path fill-rule="evenodd" clip-rule="evenodd" fill="#FF7200" d="M551.57,325.891c-4.149,0-7.743,0-11.561,0
		c0-3.36,0-6.263,0-9.536c3.821-0.262,7.403-0.508,11.561-0.793c0-3.326,0-6.439,0-9.552c0-2.981,0-5.962,0-9.245
		c4.425,0,8.505,0,13.024,0c0,6.194,0,12.13,0,18.645c6.832,0,13.242,0,19.886,0c0,3.695,0,6.801,0,10.404
		c-6.468,0-12.884,0-19.704,0c0,13.081-0.126,25.674,0.075,38.261c0.062,3.892,2.702,5.935,6.619,6.007
		c3.485,0.065,6.972,0.014,11.002,0.014c0.55,3.407,1.065,6.612,1.683,10.438c-7.739,1.807-15.282,2.82-22.69,0.439
		c-7.689-2.471-9.702-9.115-9.835-16.323c-0.2-10.822-0.057-21.652-0.06-32.479C551.569,330.351,551.57,328.53,551.57,325.891z"/>
	<path fill-rule="evenodd" clip-rule="evenodd" fill="#FFFFFF" d="M123.303,182.141c-1.572-1.818-2.961-3.425-4.424-5.117
		c3.532-5.232,6.826-10.275,4.722-17.256c-4.057,2.673-6.909,0.229-9.964-2.042c-11.054-8.224-22.189-16.337-33.856-24.905
		c3.452-2.395,6.499-4.509,9.964-6.914c10.334,8.218,20.685,16.45,32.172,25.586c-0.676-2.655-0.995-4.12-1.423-5.552
		c-2.853-9.551-5.521-19.165-8.695-28.609c-1.341-3.987-0.926-6.544,2.987-8.404c1.774-0.842,3.334-2.134,5.591-3.615
		c0.595,2.142,1.134,3.941,1.594,5.762c3.751,14.819,7.574,29.621,11.202,44.472C136.125,167.635,132.733,176.828,123.303,182.141z"
		/>
	<path fill-rule="evenodd" clip-rule="evenodd" fill="#FF7200" d="M453.652,380.806c-4.104,0-7.907,0-12.143,0
		c0-21.592,0-43.084,0-64.966c3.893,0,7.797,0,12.143,0C453.652,337.278,453.652,358.789,453.652,380.806z"/>
	<path fill-rule="evenodd" clip-rule="evenodd" fill="#FF7200" d="M454.418,295.477c-0.001,7.355-0.263,7.648-6.846,7.651
		c-6.795,0.003-6.994-0.226-6.988-8.036c0.006-7.237,0.072-7.306,7.084-7.296C454.295,287.805,454.419,287.945,454.418,295.477z"/>
	<path fill-rule="evenodd" clip-rule="evenodd" fill="#FF7200" d="M165.366,378.324c0.065-10.235,7.335-14.267,14.952-9.785
		c4.673,2.749,9.251,5.711,13.609,8.934c6.363,4.704,8.144,13.675,4.405,20.466c-3.017,5.479-12.196,8.423-18.957,5.838
		c-1.61-0.615-3.095-1.931-4.265-3.255C169.094,393.716,166.109,385.622,165.366,378.324z M177.469,378.587
		c-0.632,0.417-1.263,0.834-1.895,1.252c2.058,4.333,3.787,8.88,6.39,12.855c0.707,1.079,4.566,1.276,6.058,0.367
		c1.998-1.217,2.425-3.824-0.064-5.818C184.42,384.409,180.961,381.477,177.469,378.587z"/>
</g>
</svg>
