<?xml version="1.0" encoding="utf-8"?>
<!-- Generator: Adobe Illustrator 16.0.2, SVG Export Plug-In . SVG Version: 6.00 Build 0)  -->
<!DOCTYPE svg PUBLIC "-//W3C//DTD SVG 1.1//EN" "http://www.w3.org/Graphics/SVG/1.1/DTD/svg11.dtd">
<svg version="1.1" id="Слой_1" xmlns="http://www.w3.org/2000/svg" xmlns:xlink="http://www.w3.org/1999/xlink" x="0px" y="0px"
	 width="232px" height="439px" viewBox="0 0 232 439" enable-background="new 0 0 232 439" xml:space="preserve">
<g>
	<path fill-rule="evenodd" clip-rule="evenodd" fill="none" stroke="#FFFFFF" stroke-width="4" stroke-miterlimit="10" d="
		M109.156,262.742c-4.084,5.23-8.768,9.516-8.683,16.36c0.007,0.533-0.133,1.139-0.4,1.596c-4.39,7.517-4.335,16.09-5.279,24.29
		c-0.822,7.143-0.272,14.386,2.221,21.461c2.953,8.377,5.23,17.002,7.556,25.586c0.98,3.62,0.233,7.23-1.063,10.807
		c-3.196,8.812-3.897,17.832-2.334,27.153c1.121,6.679,1.323,13.507,2.208,20.232c0.489,3.718,1.405,7.398,2.375,11.029
		c1.297,4.855-0.846,6.711-5.676,7.665c-0.788,0.155-1.679,0.127-2.459-0.068c-5.218-1.309-10.051-0.847-15.239,1.134
		c-5.285,2.019-11.046,3.625-16.971,2.097c-0.621-0.16-1.428-0.071-1.85-0.44c-1.227-1.075-3.095-2.224-3.259-3.527
		c-0.287-2.27,2.007-2.856,3.872-2.977c6.233-0.403,9.988-4.075,13.985-8.595c6.716-7.592,7.485-16.102,6.161-25.251
		c-0.894-6.175-2.205-12.312-3.735-18.361c-0.755-2.985-2.429-5.737-3.688-8.596c-3.593-8.162-4.964-16.806-4.589-25.597
		c0.335-7.872-0.542-15.373-3.556-22.663c-2.184-5.282-3.014-10.772-1.923-16.486c0.563-2.952-0.188-5.547-2.159-7.953
		c-2.934-3.582-4.236-8-4.769-12.456c-1.37-11.44-2.292-22.956,0.244-34.347c1.193-5.361,3.317-10.51,4.651-15.847
		c1.267-5.069,2.165-10.24,3.018-15.4c0.783-4.742,3.238-8.611,5.387-12.789c2.401-4.668,3.562-10.154,4.358-15.422
		c1.064-7.042,1.665-14.212,1.718-21.333c0.059-7.872-0.589-15.705-4.815-22.844c-5.286-8.929-8.943-18.54-10.563-28.846
		c-0.27-1.72-0.282-3.479-0.416-5.221c-0.316-4.12-2.123-5.964-6.184-6.136c-3.311-0.139-6.633-0.31-9.94-0.19
		c-9.358,0.336-16.023-4.347-21.685-11.175c-3.227-3.892-6.607-7.66-10.03-11.382c-0.906-0.985-2.177-1.671-3.36-2.357
		c-3.25-1.887-4.771-4.578-4.62-8.411c0.527-13.304,4.937-25.019,13.039-35.667c3.786-4.975,6.526-10.854,9.114-16.604
		c2.783-6.184,8.909-9.806,15.64-8.213c2.407,0.569,4.751,1.421,7.101,2.211c2.723,0.916,4.416,2.855,4.389,5.718
		c-0.034,3.596-0.222,7.235-0.897,10.749c-0.188,0.979-2.248,1.938-3.603,2.264c-1.503,0.362-3.613,0.63-4.21-1.485
		c-0.509-1.804-1.599-1.994-3.074-1.993c-0.729,0-1.579,0.073-2.168-0.255c-2.851-1.589-3.601,0.191-4.418,2.415
		c-1.931,5.251-2.593,10.667-2.723,16.225c-0.142,6.064-0.617,12.12-0.77,18.185c-0.018,0.703,1.052,1.999,1.691,2.047
		c1.792,0.134,3.676-0.023,5.428-0.454c6.53-1.604,12.29-1.116,16.98,4.552c2.199,2.657,5.55,3.864,9.019,2.825
		c6.68-2.001,12.438-0.439,17.871,3.623c2.789,2.085,5.852,3.81,8.819,5.651c4.097,2.543,10.313-0.705,10.675-5.476
		c0.39-5.131-0.565-9.738-3.659-14.072c-1.574-2.206-2.022-5.216-2.982-7.861c-0.34-0.937-0.782-1.849-1.007-2.813
		c-0.37-1.581-0.863-3.197-0.839-4.792c0.071-4.84,0.565-9.68,0.504-14.515c-0.043-3.44,0.615-6.169,3.975-7.749
		c0.813-0.382,1.515-1.042,2.199-1.651c6.987-6.222,16.062-6.493,23.716-1.014c5.933,4.246,9.819,9.354,8.982,17.082
		c-0.087,0.796-0.044,1.776,0.347,2.427c2.409,4.02,1.291,8.273,0.684,12.375c-0.257,1.729-1.908,3.225-2.807,4.891
		c-0.577,1.07-1.26,2.235-1.337,3.395c-0.335,5.05-0.531,10.048,2.074,14.786c2.435,4.426,4.53,5.295,8.76,2.332
		c5.13-3.593,10.643-6.267,16.757-7.464c3.223-0.63,6.602-0.423,9.865-0.895c1.809-0.262,3.604-0.988,5.258-1.801
		c1.121-0.551,2.078-1.532,2.956-2.464c4.376-4.643,9.495-5.008,15.188-2.93c1.605,0.586,3.38,0.95,5.082,0.974
		c2.651,0.036,3.208-0.859,2.632-3.477c-1.363-6.193-2.824-12.367-4.08-18.582c-1.032-5.113-1.705-10.299-2.764-15.406
		c-1.022-4.927-3.814-5.658-7.566-2.294c-4.355,3.905-9.708,3.904-15.036,3.26c-0.888-0.107-1.769-1.83-2.274-2.974
		c-0.334-0.754,0.033-1.808,0.049-2.727c0.137-8.013,0.119-8.058,7.688-10.626c3.48-1.181,7.013-2.224,10.559-3.192
		c3.991-1.09,8.864,0.106,10.467,3.599c4.555,9.928,12.563,17.46,17.874,26.767c2.878,5.043,4.525,10.798,6.623,16.273
		c1.146,2.991,1.945,6.116,3.132,9.09c1.74,4.358,1.14,5.679-2.22,8.816c-4.819,4.5-9.173,9.496-13.785,14.224
		c-2.89,2.963-5.843,5.868-8.846,8.717c-5.568,5.28-12.238,8.173-19.892,8.332c-5.124,0.105-8.227,2.356-9.843,7.158
		c-1.903,5.655-4.116,11.207-6.023,16.861c-1.991,5.9-5.398,11.031-9.736,15.207c-3.582,3.449-4.941,7.565-6.444,11.892
		c-1.739,5.008-3.685,9.943-5.526,14.915c-0.413,1.113-1.182,2.289-1.076,3.367c0.447,4.598-0.523,8.937-1.733,13.305
		c-0.402,1.453-0.235,3.098-0.153,4.646c0.195,3.724,0.103,7.524,0.854,11.143c0.927,4.469,2.389,8.858,3.968,13.153
		c7.626,20.744,13.173,41.891,13.447,64.183c0.069,5.631-1.823,10.686-3.884,15.686c-1.346,3.266-1.451,6.341-0.531,9.653
		c1.404,5.059,2.472,10.121,1.984,15.505c-0.222,2.437,0.567,5.173,1.578,7.475c3.984,9.073,4.729,18.604,5.004,28.34
		c0.214,7.512,1.285,14.996,1.893,22.5c0.497,6.145,0.855,12.301,1.306,18.448c0.755,10.292,4.464,19.52,10.63,27.674
		c2.458,3.251,6.086,5.276,10.12,6.385c1.478,0.405,3.26,0.707,3.069,2.875c-0.182,2.073-1.936,2.069-3.436,2.52
		c-5.279,1.585-10.17-0.306-15.143-1.53c-4.902-1.207-9.787-2.487-14.71-3.603c-3.837-0.869-5.303-3.283-3.824-6.878
		c1.87-4.548,3.049-8.948,1.741-14.093c-1.894-7.454-2.541-15.229-4.484-22.667c-0.96-3.677-3.303-7.146-5.589-10.294
		c-6.687-9.204-9.136-19.467-8.882-30.672c0.127-5.604-0.303-11.228-0.666-16.831c-0.098-1.491-0.594-3.123-1.396-4.377
		c-5.437-8.499-7.697-17.904-9.181-27.783c-1.107-7.38-3.577-14.573-8.23-20.763c-1.981-2.635-3.631-5.522-5.393-8.319
		C110.777,265.69,110.1,264.397,109.156,262.742z"/>
</g>
</svg>
