<?xml version="1.0" encoding="utf-8"?>
<!-- Generator: Adobe Illustrator 16.0.2, SVG Export Plug-In . SVG Version: 6.00 Build 0)  -->
<!DOCTYPE svg PUBLIC "-//W3C//DTD SVG 1.1//EN" "http://www.w3.org/Graphics/SVG/1.1/DTD/svg11.dtd">
<svg version="1.1" id="Слой_1" xmlns="http://www.w3.org/2000/svg" xmlns:xlink="http://www.w3.org/1999/xlink" x="0px" y="0px"
	 width="394px" height="392px" viewBox="0 0 394 392" enable-background="new 0 0 394 392" xml:space="preserve">
<g>
	<g>
		<g>
			<path fill-rule="evenodd" clip-rule="evenodd" fill="#374B06" d="M65.383,231.46c-22.822-9.684-37.039-26.091-38.228-51.06
				c-1.328-27.905,13.16-46.385,38.261-57.366c-9.854-24.688-7.274-47.496,12.134-66.228c18.614-17.966,40.802-19.91,64.526-10.349
				C152.365,22.6,169.771,8.106,196.338,8.104c26.593-0.001,43.969,14.533,54.253,38.307c24.3-9.677,46.851-7.447,65.567,11.446
				c18.517,18.691,20.786,41.079,11.007,65.214c24.37,10.388,38.852,28.333,38.431,55.225c-0.406,25.997-14.839,43.29-38.411,53.2
				c1.694,6.331,4.841,11.442,9.578,16.013c14.024,13.53,27.58,27.547,41.461,41.229c7.812,7.699,10.967,16.677,7.69,27.241
				c-3.354,10.818-11.309,16.356-22.322,18.053c-6.903,1.063-13.714,2.772-20.636,3.653c-3.414,0.436-4.389,2.071-4.876,5.008
				c-1.253,7.549-2.657,15.073-4.054,22.599c-1.866,10.049-7.665,16.925-17.313,20.107c-9.914,3.27-18.813,0.855-26.176-6.436
				c-15.861-15.707-31.583-31.557-47.369-47.341c-1.271-1.271-2.597-2.485-3.893-3.721c-26.953,27.45-64.447,22.903-86.02-0.342
				c-2.389,2.503-4.726,5.045-7.163,7.487c-14.238,14.269-28.545,28.47-42.737,42.784c-7.687,7.751-16.666,11.031-27.25,7.664
				c-10.556-3.358-16.14-11.164-17.964-21.916c-1.225-7.217-2.749-14.386-3.824-21.622c-0.426-2.868-1.649-3.788-4.401-4.199
				c-7.236-1.082-14.405-2.602-21.619-3.847c-10.561-1.824-18.191-7.322-21.469-17.733c-3.256-10.343-0.507-19.279,7.171-26.895
				c13.957-13.843,27.679-27.926,41.792-41.606C60.503,243.109,63.914,238.13,65.383,231.46z M319.35,94.305
				c-0.517-13.486-7.677-26.611-22.531-34.671c-15.159-8.227-30.385-7.336-45.023,1.832c-7.087,4.438-11.06,2.844-12.759-5.293
				c-4.226-20.229-21.941-34.917-42.317-35.088c-20.418-0.171-38.396,14.225-42.897,34.351c-2.068,9.244-5.512,10.67-13.53,5.608
				c-18.502-11.683-42.59-8.145-56.62,8.316c-12.68,14.876-13.959,35.715-3.221,52.466c4.428,6.905,2.896,10.694-4.799,12.683
				c-3.999,1.033-8.063,2.222-11.729,4.071c-16.103,8.12-25.887,26.306-23.617,43.308c2.607,19.531,16.09,34.248,35.054,38.124
				c3.666,0.749,7.222,1.929,7.344,6.119c0.069,2.379-1.372,5.028-2.72,7.19c-14.216,22.785-5.538,52.638,18.814,63.245
				c14.795,6.446,29.211,5.002,42.831-3.815c5.857-3.793,10.063-2.024,11.759,4.706c0.811,3.219,1.593,6.491,2.869,9.538
				c7.159,17.082,25.229,28.084,43.082,26.398c20.081-1.896,35.661-15.419,39.615-34.495c0.772-3.725,1.506-7.707,6.108-7.861
				c2.386-0.08,5.069,1.253,7.213,2.595c16.966,10.621,39.223,8.591,53.602-5.057c14.641-13.896,17.889-35.527,7.978-53.129
				c-6.466-11.481-6.008-12.632,6.407-16.09c19.199-5.347,32.636-23.081,32.252-42.57c-0.399-20.315-14.356-37.444-34.217-41.994
				c-9.222-2.113-10.715-5.635-5.725-13.515C317.146,114.054,319.423,106.17,319.35,94.305z M59.698,262.377
				c-12.458,12.464-24.271,24.391-36.222,36.177c-3.915,3.861-5.698,8.214-4.078,13.521c1.641,5.372,5.771,7.843,11.096,8.766
				c9.506,1.647,18.983,3.459,28.497,5.056c4.145,0.696,6.462,2.757,7.166,7.026c1.515,9.189,3.37,18.321,4.924,27.505
				c0.942,5.567,2.867,10.396,8.696,12.308c5.953,1.95,10.499-0.51,14.706-4.778c15.317-15.538,30.811-30.901,46.237-46.331
				c5.948-5.949,5.949-5.948,1.045-13.353C103.849,325.019,64.542,301.065,59.698,262.377z M250.247,308.078
				c-0.006,3.758-5.664,6.357-0.94,10.995c16.88,16.565,33.528,33.367,50.204,50.142c3.789,3.813,8.201,5.115,13.215,3.517
				c4.868-1.553,7.473-5.192,8.338-10.256c1.624-9.51,3.501-18.978,5.09-28.492c0.818-4.902,3.157-7.533,8.35-8.267
				c9.218-1.302,18.34-3.262,27.52-4.85c5.512-0.953,9.689-3.464,11.365-9.104c1.622-5.464-0.571-9.638-4.399-13.416
				c-9.839-9.711-19.597-19.505-29.324-29.328c-2.055-2.075-3.84-4.416-6.396-7.386
				C327.056,305.128,284.059,323.993,250.247,308.078z"/>
		</g>
		<g>
			<path fill-rule="evenodd" clip-rule="evenodd" fill="#374B06" d="M315.462,177.135c0.243,65.561-53.363,119.282-119.095,119.352
				c-65.431,0.068-119.024-53.287-119.27-118.739c-0.246-65.596,53.262-119.435,118.906-119.645
				C261.642,57.894,315.217,111.278,315.462,177.135z M90.459,177.317c0.056,58.466,47.429,105.8,105.863,105.772
				c58.528-0.026,105.747-47.245,105.774-105.773c0.027-58.433-47.311-105.81-105.774-105.864
				C138.021,71.4,90.404,119.017,90.459,177.317z"/>
		</g>
	</g>
</g>
<g>
	<path fill="#374B06" d="M206.589,211H191.39v-48.6c0-2.933,0.199-5.433,0.6-7.5l-16.1,4.2l-1.8-10.2l17.3-6.9h15.199V211z"/>
</g>
</svg>
