<?xml version="1.0" encoding="utf-8"?>
<!-- Generator: Adobe Illustrator 16.0.2, SVG Export Plug-In . SVG Version: 6.00 Build 0)  -->
<!DOCTYPE svg PUBLIC "-//W3C//DTD SVG 1.1//EN" "http://www.w3.org/Graphics/SVG/1.1/DTD/svg11.dtd">
<svg version="1.1" id="Слой_1" xmlns="http://www.w3.org/2000/svg" xmlns:xlink="http://www.w3.org/1999/xlink" x="0px" y="0px"
	 width="139px" height="397px" viewBox="0 0 139 397" enable-background="new 0 0 139 397" xml:space="preserve">
<g>
	<path fill-rule="evenodd" clip-rule="evenodd" fill="none" stroke="#FFFFFF" stroke-width="3" d="M100.641,228.306
		c-2.472,6.098-4.719,12.389-8.043,18.017c-7.027,11.898-8.422,24.712-7.411,38.012c0.816,10.73,2.038,21.43,3.109,32.14
		c0.731,7.303,1.638,14.521,4.206,21.529c2.178,5.943,3.629,12.172,5.123,18.342c1.355,5.591,1.415,11.473,4.357,16.696
		c2.406,4.272,1.027,8.601-0.686,12.722c-0.979,2.353-3.604,3.56-6.054,3.22c-7.59-1.053-10.575-4.075-11.92-11.623
		c-1.312-7.354-1.968-14.878-5.218-21.772c-0.102-0.218-0.121-0.474-0.192-0.708c-0.732-2.399-0.79-4.703,0.095-7.167
		c0.609-1.697,1.01-3.821,0.545-5.486c-1.64-5.868-3.68-11.623-5.616-17.406c-0.126-0.374-0.653-0.614-1.175-1.078
		c-0.488,0.754-1.053,1.302-1.231,1.956c-1.325,4.861-2.943,9.683-3.747,14.635c-0.918,5.646,0.214,11.159,2.59,16.45
		c2.568,5.721,4.309,11.659,2.689,18.04c-0.885,3.493-4.063,6.309-7.365,6.587c-4.7,0.396-10.458-4.266-10.529-9.256
		c-0.125-8.756-1.479-17.137-4.854-25.272c-1.673-4.03-0.813-8.005,2.357-11.326c0.682-0.716,1.043-1.82,1.337-2.809
		c2.914-9.83,2.69-19.99,3.229-30.086c0.359-6.734,1.015-13.476,1.992-20.146c0.573-3.913,2.378-7.64,3.022-11.551
		c1.072-6.506-0.262-12.808-2.608-18.929c-2.536-6.619-5.339-13.166-7.368-19.941c-3.06-10.215-5.1-20.75-8.441-30.861
		c-2.165-6.551-3.541-12.999-3.354-19.842c0.04-1.464-0.104-2.938-0.223-4.401c-0.368-4.511-1.84-8.503-4.943-11.959
		c-8.282-9.221-17.158-17.905-24.262-28.188c-2.522-3.651-3.139-6.991-1.354-10.681c2.977-6.15,6.17-12.205,9.492-18.177
		c3.287-5.908,6.929-11.618,10.266-17.5c4.324-7.625,7.598-15.981,15.328-21.145c0.651-0.435,1.105-1.193,1.582-1.851
		c0.277-0.382,0.574-0.854,0.6-1.3c0.398-6.963,0.661-13.935,1.145-20.891c0.497-7.151,1.227-14.285,1.805-21.431
		C49.653,14.75,59.001,5.614,71.818,8.042c4.139,0.784,7.68,2.51,9.867,6.137c2.388,3.96,4.726,8.006,6.528,12.251
		c2.863,6.744,4.88,13.864,7.987,20.481C98.541,51.893,100.079,57.653,105,61c6.901,4.694,10.891,11.281,13.235,19.077
		c3.217,10.693,7.069,21.139,11.569,31.374c1.477,3.36,2.087,7.206,2.531,10.897c1.035,8.616-1.134,16.833-3.666,24.982
		c-3.213,10.342-6.837,20.597-9.293,31.121c-1.998,8.558-4.012,17.009-8.121,24.91c-0.086-0.048-0.482-0.269-0.786-0.438
		C107.168,211.487,104.029,219.947,100.641,228.306z M44.152,160.278c3.049-6.487,5.655-13.231,9.25-19.399
		c4.265-7.317,4.881-14.771,2.731-22.618c-1.243-4.538-3-8.936-4.499-13.318c-1.74,0.127-3.272-0.041-4.604,0.4
		c-2.097,0.694-4.691,1.276-5.964,2.822c-4.867,5.911-9.269,12.204-13.894,18.317c-1.404,1.856-1.361,3.525-0.249,5.575
		c5.171,9.521,10.202,19.117,15.303,28.677c0.208,0.392,0.604,0.682,1.069,1.188C43.657,161.233,43.924,160.765,44.152,160.278z
		 M112.305,161.233c0.223,0.016,0.446,0.031,0.67,0.048c0.74-4.858,1.461-9.72,2.226-14.574c1.016-6.443,2.115-12.875,3.062-19.329
		c0.204-1.393,0.215-2.961-0.223-4.27c-1.004-3.008-2.316-5.915-3.561-8.838c-0.27-0.631-0.777-1.159-1.176-1.734
		c-0.354,0.058-0.709,0.115-1.064,0.173C108.68,128.871,109.229,145.048,112.305,161.233z M74.965,213.518
		c-0.324,0.038-0.649,0.076-0.975,0.115c-2,3.465,0.928,6.404,1.035,9.645c0.365-0.055,0.732-0.111,1.099-0.167
		C75.738,219.912,75.352,216.715,74.965,213.518z"/>
</g>
</svg>
